<?xml version="1.0" encoding="utf-8"?>
<!-- Generator: Adobe Illustrator 16.0.0, SVG Export Plug-In . SVG Version: 6.00 Build 0)  -->
<!DOCTYPE svg PUBLIC "-//W3C//DTD SVG 1.1//EN" "http://www.w3.org/Graphics/SVG/1.1/DTD/svg11.dtd">
<svg version="1.1" id="Layer_1" xmlns="http://www.w3.org/2000/svg" xmlns:xlink="http://www.w3.org/1999/xlink" x="0px" y="0px"
	 width="249.697px" height="71px" viewBox="0 10 249.697 71" enable-background="new 0 10 249.697 71" xml:space="preserve">
<g enable-background="new    ">
	<path fill="#FFA600" d="M15.976,39.401c1.885,0,3.538-0.479,4.959-1.434c1.42-0.956,2.476-2.244,3.167-3.864h3.146
		c-0.876,2.496-2.324,4.461-4.341,5.896c-2.151,1.54-4.687,2.31-7.608,2.31c-3.851,0-6.97-1.313-9.359-3.942
		c-2.257-2.522-3.386-5.709-3.386-9.559c0-3.851,1.128-7.037,3.386-9.56c2.39-2.629,5.51-3.943,9.359-3.943
		c2.922,0,5.457,0.771,7.608,2.311c2.018,1.435,3.465,3.399,4.341,5.896h-3.146c-0.691-1.619-1.747-2.908-3.167-3.863
		c-1.421-0.956-3.074-1.435-4.959-1.435c-1.887,0-3.452,0.272-4.7,0.816c-1.249,0.545-2.297,1.295-3.146,2.251
		c-1.727,1.938-2.589,4.448-2.589,7.528c0,3.08,0.863,5.59,2.589,7.527C9.935,38.379,12.551,39.401,15.976,39.401z"/>
</g>
<g enable-background="new    ">
	<path fill="#312A1E" d="M46.606,38.804c-1.593,2.337-3.97,3.505-7.13,3.505c-2.868,0-5.205-0.994-7.011-2.986
		c-1.752-1.965-2.628-4.396-2.628-7.289c0-2.894,0.876-5.323,2.628-7.289c1.807-1.991,4.208-2.987,7.209-2.987
		c3,0,5.312,1.182,6.932,3.545v-3.226h2.986V41.99h-2.986V38.804L46.606,38.804z M39.875,39.601c2.151,0,3.851-0.743,5.1-2.23
		c1.194-1.407,1.792-3.187,1.792-5.338c0-2.15-0.598-3.93-1.792-5.337c-1.249-1.487-2.948-2.23-5.1-2.23
		c-2.125,0-3.851,0.743-5.178,2.23c-1.249,1.407-1.872,3.187-1.872,5.337c0,2.151,0.624,3.931,1.872,5.338
		C36.024,38.857,37.75,39.601,39.875,39.601z"/>
	<path fill="#312A1E" d="M56.922,41.99V24.703H52.86v-2.628h4.062v-7.13h2.987v7.13h4.581v2.628h-4.581V41.99H56.922z"/>
	<path fill="#312A1E" d="M70.742,14.108v11.073c0.717-0.956,1.593-1.766,2.629-2.43c1.036-0.663,2.217-0.996,3.545-0.996
		s2.471,0.187,3.426,0.558c0.956,0.372,1.792,0.93,2.51,1.673c1.646,1.62,2.469,3.758,2.469,6.413V41.99h-2.987V30.479
		c0-1.833-0.518-3.293-1.553-4.382c-1.035-1.089-2.377-1.633-4.023-1.633c-1.673,0-3.094,0.558-4.262,1.673
		c-1.169,1.143-1.753,2.604-1.753,4.381V41.99h-2.987V14.108H70.742z"/>
	<path fill="#312A1E" d="M95.08,49.877h-3.227l3.625-8.166l-8.125-19.636h3.306l6.413,16.33l6.532-16.33h3.267L95.08,49.877z"/>
</g>
<g enable-background="new    ">
	<path fill="#FFA600" d="M130.329,15.622c1.566,0,3.08,0.299,4.541,0.896c1.46,0.598,2.748,1.467,3.863,2.608
		c2.47,2.523,3.705,5.75,3.705,9.68c0,3.93-1.235,7.156-3.705,9.679c-1.115,1.142-2.403,2.011-3.863,2.608
		c-1.461,0.599-2.975,0.896-4.541,0.896h-11.113V15.622H130.329z M130.21,39.162c2.763,0,5.005-1.021,6.731-3.066
		c1.673-1.965,2.509-4.395,2.509-7.289s-0.836-5.324-2.509-7.289c-1.728-2.045-3.97-3.067-6.731-3.067h-8.006v20.712L130.21,39.162
		L130.21,39.162z"/>
</g>
<g enable-background="new    ">
	<path fill="#312A1E" d="M160.999,41.99v-3.106c-0.717,0.956-1.593,1.766-2.629,2.431c-1.035,0.664-2.217,0.994-3.545,0.994
		s-2.469-0.186-3.426-0.558c-0.955-0.371-1.792-0.929-2.509-1.673c-1.647-1.619-2.471-3.757-2.471-6.412V22.075h2.987v11.511
		c0,1.832,0.519,3.293,1.554,4.382c1.035,1.089,2.376,1.633,4.023,1.633c1.672,0,3.093-0.558,4.262-1.673
		c1.168-1.142,1.752-2.603,1.752-4.382V22.075h2.988V41.99H160.999z"/>
	<path fill="#312A1E" d="M171.315,41.99V24.703h-4.062v-2.628h4.062v-7.13h2.985v7.13h4.581v2.628h-4.581V41.99H171.315z"/>
	<path fill="#312A1E" d="M184.3,41.99V24.703h-4.062v-2.628h4.062v-7.13h2.986v7.13h4.581v2.628h-4.581V41.99H184.3z"/>
	<path fill="#312A1E" d="M203.378,21.756c2.976,0,5.392,0.996,7.25,2.987c1.752,1.912,2.629,4.342,2.629,7.289
		c0,2.947-0.877,5.378-2.629,7.289c-1.858,1.991-4.274,2.987-7.25,2.987c-2.974,0-5.391-0.996-7.249-2.987
		c-1.753-1.911-2.628-4.342-2.628-7.289c0-2.947,0.875-5.377,2.628-7.289C197.987,22.752,200.404,21.756,203.378,21.756z
		 M203.378,39.601c2.151,0,3.851-0.743,5.1-2.23c1.194-1.407,1.792-3.187,1.792-5.338c0-2.15-0.598-3.93-1.792-5.337
		c-1.249-1.487-2.947-2.23-5.1-2.23c-2.149,0-3.85,0.743-5.098,2.23c-1.195,1.407-1.793,3.187-1.793,5.337
		c0,2.151,0.598,3.931,1.793,5.338C199.528,38.857,201.227,39.601,203.378,39.601z"/>
	<path fill="#312A1E" d="M220.186,22.075v3.106c0.718-0.956,1.594-1.766,2.629-2.43c1.036-0.663,2.217-0.996,3.545-0.996
		s2.471,0.187,3.426,0.558c0.956,0.372,1.793,0.93,2.51,1.673c1.646,1.62,2.47,3.758,2.47,6.413V41.99h-2.986V30.479
		c0-1.833-0.518-3.293-1.554-4.382c-1.036-1.089-2.377-1.633-4.022-1.633c-1.674,0-3.094,0.558-4.262,1.673
		c-1.17,1.143-1.754,2.604-1.754,4.381V41.99H217.2V22.075H220.186z"/>
</g>
<g enable-background="new    ">
	<path fill="#FFA600" d="M5.132,66.547l-2.643-9.959h1.352l1.516,6.528c0.163,0.684,0.303,1.362,0.421,2.038
		c0.253-1.064,0.403-1.678,0.448-1.842l1.896-6.726H9.71l1.428,5.041c0.356,1.25,0.615,2.425,0.773,3.524
		c0.126-0.629,0.292-1.352,0.496-2.166l1.562-6.399h1.324l-2.729,9.959h-1.271l-2.099-7.588c-0.177-0.635-0.281-1.022-0.312-1.169
		c-0.104,0.458-0.201,0.847-0.292,1.169l-2.112,7.588L5.132,66.547L5.132,66.547z"/>
	<path fill="#FFA600" d="M17.539,66.547v-9.959h7.201v1.175h-5.883v3.052h5.509v1.168h-5.509v3.391h6.114v1.175L17.539,66.547
		L17.539,66.547z"/>
	<path fill="#FFA600" d="M27.725,66.547v-9.959h3.735c0.762,0,1.371,0.102,1.831,0.303s0.82,0.512,1.081,0.932
		c0.26,0.419,0.392,0.855,0.392,1.313c0,0.427-0.116,0.826-0.348,1.202c-0.23,0.376-0.58,0.68-1.046,0.91
		c0.604,0.177,1.065,0.479,1.391,0.902c0.323,0.427,0.484,0.93,0.484,1.51c0,0.466-0.098,0.898-0.295,1.301
		c-0.197,0.4-0.439,0.71-0.729,0.927c-0.29,0.218-0.653,0.382-1.091,0.493c-0.438,0.11-0.973,0.166-1.606,0.166H27.725z
		 M29.043,60.771h2.153c0.584,0,1.003-0.037,1.257-0.114c0.335-0.101,0.588-0.265,0.758-0.496c0.169-0.231,0.254-0.521,0.254-0.869
		c0-0.331-0.078-0.622-0.237-0.873c-0.158-0.252-0.386-0.424-0.68-0.517c-0.294-0.094-0.799-0.141-1.515-0.141h-1.99V60.771z
		 M29.043,65.372h2.479c0.426,0,0.725-0.017,0.896-0.048c0.304-0.055,0.558-0.146,0.762-0.271c0.203-0.127,0.37-0.312,0.502-0.554
		c0.131-0.242,0.196-0.522,0.196-0.839c0-0.372-0.095-0.694-0.284-0.969c-0.19-0.273-0.454-0.467-0.792-0.577
		c-0.339-0.111-0.823-0.166-1.458-0.166h-2.304v3.424H29.043z"/>
	<path fill="#FFA600" d="M42.9,66.547v-9.959h3.431c0.774,0,1.366,0.048,1.773,0.143c0.57,0.133,1.058,0.369,1.461,0.713
		c0.524,0.444,0.918,1.013,1.179,1.703c0.26,0.689,0.391,1.479,0.391,2.366c0,0.757-0.088,1.427-0.265,2.011
		c-0.177,0.586-0.403,1.068-0.679,1.451c-0.276,0.383-0.579,0.685-0.907,0.903c-0.328,0.22-0.725,0.386-1.188,0.499
		c-0.465,0.113-0.998,0.17-1.601,0.17H42.9z M44.218,65.372h2.127c0.656,0,1.172-0.062,1.545-0.185
		c0.373-0.121,0.671-0.295,0.894-0.517c0.312-0.312,0.556-0.731,0.73-1.26c0.174-0.528,0.262-1.168,0.262-1.92
		c0-1.041-0.171-1.843-0.513-2.401c-0.343-0.559-0.759-0.934-1.247-1.124c-0.354-0.136-0.923-0.204-1.706-0.204h-2.093
		L44.218,65.372L44.218,65.372z"/>
	<path fill="#FFA600" d="M53.963,66.547v-9.959h7.201v1.175h-5.883v3.052h5.509v1.168h-5.509v3.391h6.114v1.175L53.963,66.547
		L53.963,66.547z"/>
	<path fill="#FFA600" d="M63.755,63.348l1.243-0.108c0.06,0.498,0.196,0.907,0.411,1.227s0.549,0.577,1.002,0.774
		s0.962,0.295,1.528,0.295c0.503,0,0.947-0.074,1.332-0.225c0.385-0.149,0.671-0.354,0.858-0.614
		c0.188-0.261,0.282-0.544,0.282-0.854c0-0.312-0.091-0.585-0.271-0.817c-0.182-0.233-0.48-0.43-0.896-0.588
		c-0.268-0.104-0.857-0.267-1.772-0.485c-0.915-0.22-1.557-0.427-1.923-0.622c-0.476-0.249-0.829-0.559-1.062-0.928
		c-0.233-0.368-0.35-0.781-0.35-1.239c0-0.502,0.143-0.972,0.428-1.409s0.702-0.77,1.25-0.995c0.548-0.227,1.157-0.34,1.827-0.34
		c0.737,0,1.389,0.119,1.953,0.356c0.563,0.237,0.997,0.588,1.301,1.05s0.467,0.985,0.488,1.569l-1.264,0.095
		c-0.067-0.63-0.298-1.104-0.688-1.427c-0.393-0.321-0.971-0.481-1.736-0.481c-0.797,0-1.378,0.146-1.742,0.438
		c-0.365,0.291-0.547,0.645-0.547,1.057c0,0.357,0.129,0.652,0.387,0.883c0.253,0.23,0.916,0.468,1.987,0.71
		s1.806,0.454,2.205,0.636c0.58,0.268,1.008,0.605,1.284,1.017c0.275,0.409,0.414,0.882,0.414,1.415
		c0,0.531-0.152,1.029-0.455,1.498c-0.304,0.47-0.739,0.834-1.309,1.095c-0.568,0.261-1.208,0.388-1.92,0.388
		c-0.9,0-1.655-0.132-2.265-0.395c-0.609-0.262-1.087-0.657-1.435-1.186C63.955,64.609,63.773,64.013,63.755,63.348z"/>
	<path fill="#FFA600" d="M74.695,66.547v-9.959h1.318v9.959H74.695z"/>
	<path fill="#FFA600" d="M83.984,62.641v-1.168l4.219-0.007v3.695c-0.646,0.517-1.314,0.903-2.004,1.165
		c-0.688,0.261-1.395,0.391-2.12,0.391c-0.978,0-1.867-0.21-2.667-0.629c-0.799-0.418-1.403-1.023-1.81-1.816
		c-0.408-0.793-0.612-1.679-0.612-2.655c0-0.97,0.203-1.874,0.608-2.714c0.404-0.842,0.987-1.465,1.749-1.872
		c0.761-0.407,1.637-0.611,2.629-0.611c0.72,0,1.371,0.116,1.953,0.351c0.582,0.233,1.039,0.559,1.368,0.976
		c0.331,0.416,0.582,0.96,0.755,1.63l-1.189,0.326c-0.149-0.508-0.335-0.906-0.557-1.195c-0.223-0.29-0.539-0.521-0.951-0.695
		c-0.412-0.176-0.87-0.263-1.373-0.263c-0.603,0-1.123,0.093-1.562,0.275c-0.438,0.183-0.793,0.424-1.062,0.723
		c-0.271,0.299-0.479,0.628-0.628,0.985c-0.253,0.615-0.38,1.283-0.38,2.004c0,0.888,0.152,1.631,0.458,2.229
		c0.305,0.599,0.751,1.043,1.335,1.331c0.584,0.29,1.205,0.437,1.86,0.437c0.571,0,1.128-0.11,1.671-0.33
		c0.543-0.221,0.956-0.454,1.236-0.703v-1.854h-2.926V62.641z"/>
	<path fill="#FFA600" d="M91.119,66.547v-9.959h1.353l5.23,7.819v-7.819h1.264v9.959h-1.352l-5.231-7.826v7.826H91.119z"/>
	<path fill="#FFA600" d="M102.196,66.547v-9.959h7.201v1.175h-5.883v3.052h5.509v1.168h-5.509v3.391h6.113v1.175L102.196,66.547
		L102.196,66.547z"/>
	<path fill="#FFA600" d="M112.456,66.547v-9.959h4.416c0.889,0,1.562,0.09,2.024,0.27c0.462,0.179,0.831,0.494,1.106,0.946
		c0.276,0.453,0.415,0.953,0.415,1.501c0,0.707-0.229,1.303-0.686,1.787c-0.458,0.484-1.164,0.793-2.12,0.924
		c0.349,0.168,0.613,0.334,0.795,0.496c0.385,0.354,0.75,0.795,1.094,1.324l1.732,2.711h-1.657l-1.318-2.072
		c-0.385-0.598-0.701-1.055-0.95-1.371c-0.25-0.316-0.473-0.539-0.669-0.666c-0.197-0.127-0.397-0.215-0.602-0.266
		c-0.148-0.031-0.394-0.048-0.733-0.048h-1.528v4.423H112.456z M113.774,60.982h2.833c0.602,0,1.073-0.062,1.413-0.188
		c0.339-0.124,0.598-0.322,0.773-0.598c0.177-0.273,0.266-0.571,0.266-0.895c0-0.471-0.171-0.856-0.514-1.16
		c-0.342-0.305-0.882-0.455-1.62-0.455h-3.151V60.982z"/>
	<path fill="#FFA600" d="M133.86,65.372c-0.402,0.448-0.842,0.784-1.317,1.009s-0.988,0.336-1.542,0.336
		c-1.02,0-1.828-0.344-2.426-1.031c-0.484-0.562-0.727-1.189-0.727-1.883c0-0.615,0.197-1.172,0.595-1.668
		c0.396-0.496,0.988-0.932,1.776-1.308c-0.448-0.517-0.748-0.937-0.896-1.257c-0.15-0.321-0.225-0.633-0.225-0.932
		c0-0.598,0.233-1.117,0.702-1.56c0.47-0.442,1.06-0.662,1.771-0.662c0.68,0,1.235,0.208,1.668,0.625s0.648,0.917,0.648,1.501
		c0,0.947-0.628,1.756-1.882,2.426l1.786,2.275c0.204-0.398,0.362-0.86,0.477-1.387l1.271,0.271
		c-0.218,0.87-0.513,1.586-0.884,2.146c0.458,0.606,0.977,1.117,1.557,1.528l-0.821,0.972
		C134.895,66.461,134.385,65.992,133.86,65.372z M133.093,64.407l-2.24-2.778c-0.661,0.395-1.107,0.76-1.339,1.098
		c-0.23,0.338-0.347,0.672-0.347,1.002c0,0.402,0.16,0.821,0.482,1.256c0.321,0.436,0.775,0.652,1.365,0.652
		c0.366,0,0.746-0.113,1.138-0.343S132.858,64.77,133.093,64.407z M131.374,60.182c0.53-0.312,0.873-0.587,1.029-0.822
		c0.156-0.234,0.234-0.495,0.234-0.78c0-0.34-0.107-0.617-0.322-0.832s-0.483-0.322-0.806-0.322c-0.33,0-0.604,0.106-0.825,0.319
		c-0.22,0.213-0.329,0.473-0.329,0.779c0,0.154,0.04,0.316,0.119,0.486s0.197,0.35,0.355,0.54L131.374,60.182z"/>
	<path fill="#FFA600" d="M143.445,66.547v-9.959h3.431c0.774,0,1.365,0.048,1.773,0.143c0.57,0.133,1.057,0.369,1.461,0.713
		c0.525,0.444,0.918,1.013,1.178,1.703c0.261,0.689,0.392,1.479,0.392,2.366c0,0.757-0.089,1.427-0.266,2.011
		c-0.177,0.586-0.402,1.068-0.679,1.451c-0.277,0.383-0.579,0.685-0.908,0.903c-0.328,0.22-0.725,0.386-1.188,0.499
		c-0.466,0.113-0.998,0.17-1.602,0.17H143.445z M144.762,65.372h2.127c0.655,0,1.172-0.062,1.545-0.185
		c0.374-0.121,0.672-0.295,0.895-0.517c0.312-0.312,0.555-0.731,0.729-1.26s0.262-1.168,0.262-1.92c0-1.041-0.171-1.843-0.513-2.401
		c-0.343-0.559-0.759-0.934-1.246-1.124c-0.354-0.136-0.922-0.204-1.706-0.204h-2.093V65.372z"/>
	<path fill="#FFA600" d="M154.508,66.547v-9.959h7.201v1.175h-5.884v3.052h5.51v1.168h-5.51v3.391h6.114v1.175L154.508,66.547
		L154.508,66.547z"/>
	<path fill="#FFA600" d="M167.594,66.547l-3.858-9.959h1.426l2.589,7.234c0.208,0.58,0.383,1.124,0.522,1.631
		c0.154-0.543,0.333-1.087,0.537-1.631l2.689-7.234h1.346l-3.899,9.959H167.594z"/>
	<path fill="#FFA600" d="M175.043,66.547v-9.959h7.201v1.175h-5.884v3.052h5.51v1.168h-5.51v3.391h6.114v1.175L175.043,66.547
		L175.043,66.547z"/>
	<path fill="#FFA600" d="M185.228,66.547v-9.959h1.317v8.784h4.905v1.175H185.228z"/>
	<path fill="#FFA600" d="M193.608,61.696c0-1.653,0.442-2.947,1.331-3.882c0.888-0.937,2.033-1.403,3.438-1.403
		c0.919,0,1.748,0.22,2.486,0.659c0.738,0.438,1.301,1.052,1.688,1.838c0.387,0.785,0.58,1.677,0.58,2.673
		c0,1.01-0.203,1.913-0.611,2.71c-0.407,0.798-0.984,1.4-1.731,1.811c-0.748,0.41-1.554,0.615-2.419,0.615
		c-0.938,0-1.774-0.227-2.514-0.68c-0.738-0.452-1.297-1.07-1.678-1.854C193.798,63.398,193.608,62.57,193.608,61.696z
		 M194.967,61.717c0,1.2,0.322,2.146,0.969,2.836c0.646,0.691,1.455,1.036,2.429,1.036c0.992,0,1.809-0.349,2.449-1.046
		c0.64-0.697,0.961-1.688,0.961-2.969c0-0.811-0.137-1.52-0.411-2.123c-0.273-0.604-0.675-1.073-1.202-1.406
		c-0.526-0.333-1.12-0.499-1.775-0.499c-0.934,0-1.735,0.32-2.408,0.961C195.304,59.148,194.967,60.218,194.967,61.717z"/>
	<path fill="#FFA600" d="M205.818,66.547v-9.959h3.757c0.661,0,1.166,0.031,1.515,0.096c0.489,0.082,0.899,0.236,1.229,0.465
		c0.331,0.229,0.597,0.55,0.799,0.961c0.201,0.412,0.302,0.865,0.302,1.358c0,0.849-0.27,1.564-0.808,2.15
		c-0.539,0.587-1.513,0.88-2.922,0.88h-2.554v4.049H205.818z M207.136,61.323h2.573c0.853,0,1.456-0.159,1.813-0.476
		c0.357-0.317,0.537-0.765,0.537-1.34c0-0.416-0.105-0.773-0.315-1.068c-0.211-0.297-0.488-0.493-0.833-0.588
		c-0.222-0.06-0.632-0.09-1.229-0.09h-2.547V61.323L207.136,61.323z"/>
	<path fill="#FFA600" d="M216.113,66.547v-9.959h7.201v1.175h-5.884v3.052h5.51v1.168h-5.51v3.391h6.113v1.175L216.113,66.547
		L216.113,66.547z"/>
	<path fill="#FFA600" d="M226.374,66.547v-9.959h4.416c0.889,0,1.562,0.09,2.024,0.27c0.462,0.179,0.831,0.494,1.106,0.946
		c0.275,0.453,0.414,0.953,0.414,1.501c0,0.707-0.229,1.303-0.687,1.787c-0.457,0.484-1.164,0.793-2.119,0.924
		c0.349,0.168,0.613,0.334,0.795,0.496c0.385,0.354,0.749,0.795,1.094,1.324l1.732,2.711h-1.658l-1.317-2.072
		c-0.385-0.598-0.701-1.055-0.95-1.371s-0.474-0.539-0.669-0.666c-0.197-0.127-0.397-0.215-0.603-0.266
		c-0.148-0.031-0.394-0.048-0.732-0.048h-1.528v4.423H226.374z M227.692,60.982h2.832c0.603,0,1.073-0.062,1.413-0.188
		c0.34-0.124,0.598-0.322,0.773-0.598c0.178-0.273,0.267-0.571,0.267-0.895c0-0.471-0.172-0.856-0.515-1.16
		c-0.342-0.305-0.882-0.455-1.619-0.455h-3.151V60.982z"/>
</g>
</svg>
